<?xml version="1.0" encoding="UTF-8" standalone="no"?>
<svg
   xmlns:dc="http://purl.org/dc/elements/1.1/"
   xmlns:cc="http://creativecommons.org/ns#"
   xmlns:rdf="http://www.w3.org/1999/02/22-rdf-syntax-ns#"
   xmlns:svg="http://www.w3.org/2000/svg"
   xmlns="http://www.w3.org/2000/svg"
   xmlns:sodipodi="http://sodipodi.sourceforge.net/DTD/sodipodi-0.dtd"
   xmlns:inkscape="http://www.inkscape.org/namespaces/inkscape"
   width="19"
   height="19"
   viewBox="0 0 19 19"
   version="1.1"
   id="svg6"
   sodipodi:docname="icon.svg"
   inkscape:version="0.92.3 (2405546, 2018-03-11)"
   inkscape:export-filename="C:\Users\daniel\Dropbox\icon-19.png"
   inkscape:export-xdpi="96"
   inkscape:export-ydpi="96">
  <metadata
     id="metadata12">
    <rdf:RDF>
      <cc:Work
         rdf:about="">
        <dc:format>image/svg+xml</dc:format>
        <dc:type
           rdf:resource="http://purl.org/dc/dcmitype/StillImage" />
        <dc:title />
        <cc:license
           rdf:resource="http://creativecommons.org/publicdomain/zero/1.0/" />
      </cc:Work>
      <cc:License
         rdf:about="http://creativecommons.org/publicdomain/zero/1.0/">
        <cc:permits
           rdf:resource="http://creativecommons.org/ns#Reproduction" />
        <cc:permits
           rdf:resource="http://creativecommons.org/ns#Distribution" />
        <cc:permits
           rdf:resource="http://creativecommons.org/ns#DerivativeWorks" />
      </cc:License>
    </rdf:RDF>
  </metadata>
  <defs
     id="defs10" />
  <sodipodi:namedview
     pagecolor="#ffffff"
     bordercolor="#666666"
     borderopacity="1"
     objecttolerance="10"
     gridtolerance="10"
     guidetolerance="10"
     inkscape:pageopacity="0"
     inkscape:pageshadow="2"
     inkscape:window-width="1920"
     inkscape:window-height="1016"
     id="namedview8"
     showgrid="false"
     inkscape:zoom="14.75"
     inkscape:cx="3.3294638"
     inkscape:cy="15.826553"
     inkscape:window-x="0"
     inkscape:window-y="27"
     inkscape:window-maximized="1"
     inkscape:current-layer="svg6" />
  <rect
     id="rect34"
     width="13"
     height="13.5"
     x="1.75"
     y="1.75"
     style="stroke-width:1.04203713;fill:#fffff3;fill-opacity:1" />
  <path
     fill="rgba(12, 12, 13, .8)"
     d="M 13,1.0000001e-8 H 7 3 C 2.1715729,1.0000001e-8 1.4215729,0.33578651 0.8786797,0.87867969 0.3357864,1.4215729 0,2.1715728 0,3 V 7.2500003 13.5 c 0,0.828427 0.3357864,1.578427 0.8786797,2.12132 C 1.4215729,16.164213 2.1715729,16.5 3,16.5 h 4 6 c 0.828427,0 1.578427,-0.335787 2.12132,-0.87868 C 15.664213,15.078427 16,14.328427 16,13.5 V 7.2500003 3 C 16,2.1715729 15.664213,1.4215729 15.12132,0.87867969 14.578427,0.33578651 13.825565,-0.06879707 13,1.0000001e-8 Z M 14,13.5 c 0,0.276142 -0.111929,0.526142 -0.292893,0.707107 C 13.526142,14.388071 13.276142,14.5 13,14.5 H 7 3 C 2.7238577,14.5 2.4738577,14.388071 2.2928932,14.207107 2.1119288,14.026142 2,13.776142 2,13.5 V 7.2500003 3 C 2,2.7238576 2.1119288,2.4738576 2.2928932,2.2928932 2.4738577,2.1119288 2.7238577,2 3,2 h 4 6 c 0.276142,0 0.526142,0.1119288 0.707107,0.2928932 C 13.888071,2.4738576 14,2.7238576 14,3 v 4.2500003 z"
     id="path2"
     inkscape:connector-curvature="0"
     sodipodi:nodetypes="scssscssscssscsssssscssscssscssscs" />
  <g
     id="g3772"
     transform="matrix(1.3333333,0,0,1.3333333,-6.333333,-6.3333333)">
    <circle
       r="3.5"
       style="fill:#ffffff;fill-opacity:1;stroke-width:1.29062486"
       cy="14.5"
       cx="14.5"
       id="path43" />
    <path
       inkscape:connector-curvature="0"
       id="path22"
       d="M 14.5,10 A 4.5,4.5 0 0 0 10,14.5 4.5,4.5 0 0 0 14.5,19 4.5,4.5 0 0 0 19,14.5 4.5,4.5 0 0 0 14.5,10 Z m 0,1.125 A 3.375,3.375 0 0 1 17.875,14.5 3.375,3.375 0 0 1 14.5,17.875 3.375,3.375 0 0 1 11.125,14.5 3.375,3.375 0 0 1 14.5,11.125 Z"
       style="stroke-width:0.5648936" />
    <path
       style="stroke-width:0.58955193"
       sodipodi:nodetypes="cccsscccc"
       id="path2-6"
       d="m 13.760183,16.065765 1.179104,-1.179104 c 0.05525,-0.0554 0.08622,-0.130466 0.08608,-0.208701 v -2.358208 c 0,-0.393035 -0.589552,-0.393035 -0.589552,0 v 2.23617 l -1.09303,1.092439 c -0.287661,0.277834 0.138977,0.704476 0.416813,0.416813 z"
       fill="rgba(12, 12, 13, .8)"
       inkscape:connector-curvature="0" />
  </g>
</svg>
